<svg width="238" height="56" viewBox="0 0 238 56" fill="none" xmlns="http://www.w3.org/2000/svg">
<circle cx="28" cy="28" r="28" fill="#1A083E"/>
<path d="M18.8291 30.2388V36H15.46V19.6484H21.8389C23.0667 19.6484 24.1449 19.873 25.0732 20.3223C26.0091 20.7715 26.7279 21.4116 27.2295 22.2427C27.7311 23.0662 27.9819 24.0059 27.9819 25.0615C27.9819 26.6637 27.4316 27.929 26.3311 28.8574C25.238 29.7783 23.7218 30.2388 21.7827 30.2388H18.8291ZM18.8291 27.5098H21.8389C22.7298 27.5098 23.4074 27.3001 23.8716 26.8809C24.3433 26.4616 24.5791 25.8626 24.5791 25.084C24.5791 24.2829 24.3433 23.6353 23.8716 23.1411C23.3999 22.647 22.7485 22.3924 21.9175 22.3774H18.8291V27.5098ZM41.043 30.0366C41.043 31.9832 40.6274 33.5031 39.7964 34.5962C38.9653 35.6818 37.8049 36.2246 36.3149 36.2246C34.9972 36.2246 33.9453 35.7192 33.1592 34.7085L33.0132 36H30.0933V18.75H33.3389V24.938C34.0876 24.062 35.0721 23.624 36.2925 23.624C37.7749 23.624 38.9354 24.1706 39.7739 25.2637C40.62 26.3493 41.043 27.8804 41.043 29.8569V30.0366ZM37.7974 29.8008C37.7974 28.5729 37.6027 27.6782 37.2134 27.1167C36.8241 26.5477 36.2438 26.2632 35.4727 26.2632C34.4395 26.2632 33.7282 26.6862 33.3389 27.5322V32.3276C33.7357 33.1812 34.4544 33.6079 35.4951 33.6079C36.5433 33.6079 37.2321 33.0913 37.5615 32.0581C37.7188 31.564 37.7974 30.8115 37.7974 29.8008Z" fill="white"/>
<path d="M69.8291 30.2388V36H66.46V19.6484H72.8389C74.0667 19.6484 75.1449 19.873 76.0732 20.3223C77.0091 20.7715 77.7279 21.4116 78.2295 22.2427C78.7311 23.0662 78.9819 24.0059 78.9819 25.0615C78.9819 26.6637 78.4316 27.929 77.3311 28.8574C76.238 29.7783 74.7218 30.2388 72.7827 30.2388H69.8291ZM69.8291 27.5098H72.8389C73.7298 27.5098 74.4074 27.3001 74.8716 26.8809C75.3433 26.4616 75.5791 25.8626 75.5791 25.084C75.5791 24.2829 75.3433 23.6353 74.8716 23.1411C74.3999 22.647 73.7485 22.3924 72.9175 22.3774H69.8291V27.5098ZM87.9214 26.8921C87.4797 26.8322 87.0903 26.8022 86.7534 26.8022C85.5256 26.8022 84.7207 27.2178 84.3389 28.0488V36H81.0933V23.8486H84.1592L84.249 25.2974C84.9004 24.1818 85.8026 23.624 86.9556 23.624C87.3149 23.624 87.6519 23.6727 87.9663 23.77L87.9214 26.8921ZM88.584 29.812C88.584 28.6066 88.8161 27.5322 89.2803 26.5889C89.7445 25.6455 90.4108 24.9155 91.2793 24.3989C92.1553 23.8823 93.1698 23.624 94.3228 23.624C95.9624 23.624 97.2988 24.1257 98.332 25.1289C99.3727 26.1322 99.953 27.4948 100.073 29.2168L100.095 30.0479C100.095 31.9121 99.5749 33.4095 98.5342 34.54C97.4935 35.6631 96.0972 36.2246 94.3452 36.2246C92.5933 36.2246 91.1932 35.6631 90.145 34.54C89.1043 33.417 88.584 31.8896 88.584 29.958V29.812ZM91.8296 30.0479C91.8296 31.2008 92.0467 32.0843 92.481 32.6982C92.9152 33.3047 93.5366 33.6079 94.3452 33.6079C95.1313 33.6079 95.7453 33.3084 96.187 32.7095C96.6287 32.103 96.8496 31.1372 96.8496 29.812C96.8496 28.6815 96.6287 27.8055 96.187 27.1841C95.7453 26.5627 95.1239 26.252 94.3228 26.252C93.5291 26.252 92.9152 26.5627 92.481 27.1841C92.0467 27.798 91.8296 28.7526 91.8296 30.0479ZM113.033 30.0366C113.033 31.9084 112.606 33.4095 111.752 34.54C110.906 35.6631 109.761 36.2246 108.316 36.2246C107.088 36.2246 106.096 35.7979 105.34 34.9443V40.6719H102.094V23.8486H105.104L105.216 25.0391C106.002 24.0957 107.028 23.624 108.293 23.624C109.791 23.624 110.955 24.1781 111.786 25.2861C112.617 26.3942 113.033 27.9215 113.033 29.8682V30.0366ZM109.787 29.8008C109.787 28.6702 109.585 27.798 109.181 27.1841C108.784 26.5701 108.204 26.2632 107.44 26.2632C106.422 26.2632 105.722 26.6525 105.34 27.4312V32.4062C105.737 33.2074 106.444 33.6079 107.462 33.6079C109.012 33.6079 109.787 32.3389 109.787 29.8008ZM120.647 36.2246C118.865 36.2246 117.413 35.6781 116.29 34.585C115.174 33.4919 114.616 32.0356 114.616 30.2163V29.9019C114.616 28.6815 114.852 27.5921 115.324 26.6338C115.795 25.668 116.462 24.9268 117.323 24.4102C118.191 23.8861 119.18 23.624 120.288 23.624C121.95 23.624 123.256 24.1481 124.207 25.1963C125.165 26.2445 125.645 27.7306 125.645 29.6548V30.98H117.907C118.012 31.7736 118.326 32.41 118.85 32.8892C119.382 33.3683 120.052 33.6079 120.86 33.6079C122.111 33.6079 123.088 33.1549 123.792 32.249L125.386 34.0347C124.9 34.7235 124.241 35.2625 123.41 35.6519C122.579 36.0337 121.658 36.2246 120.647 36.2246ZM120.276 26.252C119.632 26.252 119.108 26.4691 118.704 26.9033C118.307 27.3376 118.053 27.959 117.94 28.7676H122.455V28.5093C122.44 27.7905 122.245 27.2365 121.871 26.8472C121.497 26.4504 120.965 26.252 120.276 26.252ZM134.326 26.8921C133.884 26.8322 133.495 26.8022 133.158 26.8022C131.93 26.8022 131.125 27.2178 130.743 28.0488V36H127.498V23.8486H130.563L130.653 25.2974C131.305 24.1818 132.207 23.624 133.36 23.624C133.719 23.624 134.056 23.6727 134.371 23.77L134.326 26.8921ZM141.839 36V19.6484H147.566C149.55 19.6484 151.055 20.0303 152.081 20.7939C153.107 21.5501 153.62 22.6619 153.62 24.1294C153.62 24.9305 153.414 25.638 153.002 26.252C152.59 26.8584 152.017 27.3039 151.284 27.5884C152.122 27.798 152.781 28.221 153.26 28.8574C153.747 29.4938 153.99 30.2725 153.99 31.1934C153.99 32.7656 153.489 33.9561 152.485 34.7646C151.482 35.5732 150.052 35.985 148.195 36H141.839ZM145.208 28.8799V33.2935H148.094C148.888 33.2935 149.506 33.1063 149.947 32.7319C150.396 32.3501 150.621 31.826 150.621 31.1597C150.621 29.6623 149.846 28.9023 148.296 28.8799H145.208ZM145.208 26.499H147.701C149.401 26.4691 150.25 25.7915 150.25 24.4663C150.25 23.7251 150.033 23.1935 149.599 22.8716C149.172 22.5422 148.495 22.3774 147.566 22.3774H145.208V26.499ZM155.81 29.812C155.81 28.6066 156.042 27.5322 156.506 26.5889C156.97 25.6455 157.636 24.9155 158.505 24.3989C159.381 23.8823 160.395 23.624 161.548 23.624C163.188 23.624 164.524 24.1257 165.558 25.1289C166.598 26.1322 167.179 27.4948 167.298 29.2168L167.321 30.0479C167.321 31.9121 166.8 33.4095 165.76 34.54C164.719 35.6631 163.323 36.2246 161.571 36.2246C159.819 36.2246 158.419 35.6631 157.371 34.54C156.33 33.417 155.81 31.8896 155.81 29.958V29.812ZM159.055 30.0479C159.055 31.2008 159.272 32.0843 159.707 32.6982C160.141 33.3047 160.762 33.6079 161.571 33.6079C162.357 33.6079 162.971 33.3084 163.413 32.7095C163.854 32.103 164.075 31.1372 164.075 29.812C164.075 28.6815 163.854 27.8055 163.413 27.1841C162.971 26.5627 162.349 26.252 161.548 26.252C160.755 26.252 160.141 26.5627 159.707 27.1841C159.272 27.798 159.055 28.7526 159.055 30.0479ZM168.814 29.812C168.814 28.6066 169.047 27.5322 169.511 26.5889C169.975 25.6455 170.641 24.9155 171.51 24.3989C172.386 23.8823 173.4 23.624 174.553 23.624C176.193 23.624 177.529 24.1257 178.562 25.1289C179.603 26.1322 180.183 27.4948 180.303 29.2168L180.326 30.0479C180.326 31.9121 179.805 33.4095 178.765 34.54C177.724 35.6631 176.328 36.2246 174.576 36.2246C172.824 36.2246 171.424 35.6631 170.375 34.54C169.335 33.417 168.814 31.8896 168.814 29.958V29.812ZM172.06 30.0479C172.06 31.2008 172.277 32.0843 172.711 32.6982C173.146 33.3047 173.767 33.6079 174.576 33.6079C175.362 33.6079 175.976 33.3084 176.417 32.7095C176.859 32.103 177.08 31.1372 177.08 29.812C177.08 28.6815 176.859 27.8055 176.417 27.1841C175.976 26.5627 175.354 26.252 174.553 26.252C173.76 26.252 173.146 26.5627 172.711 27.1841C172.277 27.798 172.06 28.7526 172.06 30.0479ZM186.738 31.126L185.57 32.2939V36H182.325V18.75H185.57V28.3071L186.199 27.4985L189.31 23.8486H193.207L188.816 28.9136L193.589 36H189.86L186.738 31.126ZM198.036 36H194.779V23.8486H198.036V36ZM194.588 20.7041C194.588 20.2174 194.749 19.8169 195.071 19.5024C195.401 19.188 195.846 19.0308 196.408 19.0308C196.962 19.0308 197.403 19.188 197.733 19.5024C198.062 19.8169 198.227 20.2174 198.227 20.7041C198.227 21.1982 198.059 21.6025 197.722 21.917C197.392 22.2314 196.954 22.3887 196.408 22.3887C195.861 22.3887 195.419 22.2314 195.083 21.917C194.753 21.6025 194.588 21.1982 194.588 20.7041ZM203.708 23.8486L203.809 25.2524C204.677 24.1668 205.841 23.624 207.301 23.624C208.589 23.624 209.547 24.0021 210.176 24.7583C210.805 25.5145 211.127 26.645 211.142 28.1499V36H207.896V28.2285C207.896 27.5397 207.747 27.0418 207.447 26.7349C207.148 26.4204 206.65 26.2632 205.954 26.2632C205.04 26.2632 204.355 26.6525 203.898 27.4312V36H200.653V23.8486H203.708ZM213.141 29.8345C213.141 27.9702 213.583 26.4691 214.466 25.3311C215.357 24.193 216.555 23.624 218.06 23.624C219.393 23.624 220.43 24.0807 221.171 24.9941L221.306 23.8486H224.248V35.5957C224.248 36.6589 224.005 37.5835 223.518 38.3696C223.039 39.1558 222.361 39.7547 221.485 40.1665C220.609 40.5783 219.584 40.7842 218.408 40.7842C217.517 40.7842 216.649 40.6045 215.803 40.2451C214.957 39.8932 214.317 39.4365 213.882 38.875L215.32 36.8984C216.128 37.8044 217.109 38.2573 218.262 38.2573C219.123 38.2573 219.793 38.0252 220.272 37.561C220.752 37.1043 220.991 36.453 220.991 35.6069V34.9556C220.243 35.8016 219.258 36.2246 218.038 36.2246C216.578 36.2246 215.395 35.6556 214.489 34.5176C213.59 33.3721 213.141 31.856 213.141 29.9692V29.8345ZM216.387 30.0703C216.387 31.1709 216.608 32.0356 217.049 32.6646C217.491 33.286 218.097 33.5967 218.869 33.5967C219.857 33.5967 220.564 33.2261 220.991 32.4849V27.375C220.557 26.6338 219.857 26.2632 218.891 26.2632C218.112 26.2632 217.499 26.5814 217.049 27.2178C216.608 27.8542 216.387 28.805 216.387 30.0703ZM233.333 32.6421C233.333 32.2453 233.135 31.9346 232.738 31.71C232.349 31.4779 231.72 31.272 230.852 31.0923C227.962 30.4858 226.517 29.258 226.517 27.4087C226.517 26.3306 226.962 25.4321 227.853 24.7134C228.751 23.9871 229.923 23.624 231.368 23.624C232.91 23.624 234.142 23.9871 235.063 24.7134C235.991 25.4396 236.456 26.383 236.456 27.5435H233.21C233.21 27.0793 233.06 26.6974 232.761 26.3979C232.461 26.091 231.993 25.9375 231.357 25.9375C230.81 25.9375 230.387 26.061 230.088 26.3081C229.788 26.5552 229.639 26.8696 229.639 27.2515C229.639 27.6108 229.807 27.9028 230.144 28.1274C230.488 28.3446 231.065 28.5355 231.874 28.7002C232.682 28.8574 233.363 29.0371 233.917 29.2393C235.632 29.8682 236.489 30.9575 236.489 32.5073C236.489 33.6154 236.014 34.5138 235.063 35.2026C234.112 35.884 232.884 36.2246 231.379 36.2246C230.361 36.2246 229.455 36.0449 228.662 35.6855C227.875 35.3187 227.258 34.8208 226.809 34.1919C226.359 33.5555 226.135 32.8704 226.135 32.1367H229.212C229.242 32.7132 229.455 33.1549 229.852 33.4619C230.249 33.7689 230.78 33.9224 231.447 33.9224C232.068 33.9224 232.536 33.8063 232.851 33.5742C233.173 33.3346 233.333 33.0239 233.333 32.6421Z" fill="#1A083E"/>
</svg>
